<svg width="28" height="32" viewBox="0 0 28 32" fill="none" xmlns="http://www.w3.org/2000/svg">
<g clip-path="url(#clip0_1_789)">
<path d="M4 7.99999C5.65625 7.99999 7 6.99999 7 4.99999C7 3.61249 5.5625 1.74999 4.675 0.737494C4.3125 0.318744 3.6875 0.318744 3.325 0.737494C2.4375 1.74999 1 3.61249 1 4.99999C1 6.65624 2.34375 7.99999 4 7.99999ZM14 7.99999C15.6562 7.99999 17 6.99999 17 4.99999C17 3.61249 15.5625 1.74999 14.675 0.737494C14.3125 0.318744 13.6813 0.318744 13.3188 0.737494C12.4375 1.74999 11 3.61249 11 4.99999C11 6.65624 12.3438 7.99999 14 7.99999ZM27 4.99999C27 3.61249 25.5625 1.74999 24.675 0.737494C24.3125 0.318744 23.6812 0.318744 23.3188 0.737494C22.4375 1.74999 21 3.61249 21 4.99999C21 6.65624 22.3438 7.99999 24 7.99999C25.6562 7.99999 27 6.99999 27 4.99999ZM9.6125 14H18.3875C18.8125 14 19.1875 14.2687 19.3312 14.6625L20.5187 18H7.48125L8.675 14.6625C8.81875 14.2625 9.19375 14 9.61875 14H9.6125ZM4.90625 13.3187L3.1375 18.275C1.88125 18.8062 1 20.05 1 21.5V24V28V30C1 31.1062 1.89375 32 3 32H4C5.10625 32 6 31.1062 6 30V28H22V30C22 31.1062 22.8937 32 24 32H25C26.1063 32 27 31.1062 27 30V28V24V21.5C27 20.05 26.1187 18.8062 24.8625 18.275L23.0938 13.3187C22.3813 11.3312 20.5 10 18.3875 10H9.6125C7.5 10 5.6125 11.3312 4.90625 13.3187ZM6 21.5C6.39782 21.5 6.77936 21.658 7.06066 21.9393C7.34196 22.2206 7.5 22.6022 7.5 23C7.5 23.3978 7.34196 23.7794 7.06066 24.0607C6.77936 24.342 6.39782 24.5 6 24.5C5.60218 24.5 5.22064 24.342 4.93934 24.0607C4.65804 23.7794 4.5 23.3978 4.5 23C4.5 22.6022 4.65804 22.2206 4.93934 21.9393C5.22064 21.658 5.60218 21.5 6 21.5ZM20.5 23C20.5 22.6022 20.658 22.2206 20.9393 21.9393C21.2206 21.658 21.6022 21.5 22 21.5C22.3978 21.5 22.7794 21.658 23.0607 21.9393C23.342 22.2206 23.5 22.6022 23.5 23C23.5 23.3978 23.342 23.7794 23.0607 24.0607C22.7794 24.342 22.3978 24.5 22 24.5C21.6022 24.5 21.2206 24.342 20.9393 24.0607C20.658 23.7794 20.5 23.3978 20.5 23Z" fill="#3B82F6"/>
</g>
<defs>
<clipPath id="clip0_1_789">
<rect width="28" height="32" fill="white"/>
</clipPath>
</defs>
</svg>
