<svg width="30" height="22" viewBox="0 0 30 22" fill="none" xmlns="http://www.w3.org/2000/svg">
<path d="M13.125 0.499988C12.5016 0.499988 12 1.00155 12 1.62499C12 2.24843 12.5016 2.74999 13.125 2.74999H15.8297L16.5984 4.1703L12 7.99999L9.87656 5.87655C9.31406 5.31405 8.55 4.99999 7.75312 4.99999H3C2.17031 4.99999 1.5 5.6703 1.5 6.49999V7.99999H6C10.1438 7.99999 13.5 11.3562 13.5 15.5C13.5 16.0156 13.4484 16.5172 13.35 17H16.65C16.5516 16.5172 16.5 16.0156 16.5 15.5C16.5 13.0531 17.6719 10.8781 19.4859 9.50936L20.2078 10.85C18.8625 11.9516 18 13.625 18 15.5C18 18.8141 20.6859 21.5 24 21.5C27.3141 21.5 30 18.8141 30 15.5C30 12.1859 27.3141 9.49999 24 9.49999C23.3672 9.49999 22.7578 9.59843 22.1859 9.78124L19.6031 4.99999H22.5C23.3297 4.99999 24 4.32968 24 3.49999V1.99999C24 1.1703 23.3297 0.499988 22.5 0.499988H21.5438C21.1922 0.499988 20.8547 0.621863 20.5828 0.846863L18.3609 2.69843L17.7047 1.47968C17.3766 0.874988 16.7437 0.4953 16.0547 0.4953H13.125V0.499988ZM21.6891 13.5875L23.0109 16.0344C23.3062 16.5828 23.9906 16.7844 24.5344 16.4891C25.0781 16.1937 25.2844 15.5094 24.9891 14.9656L23.6672 12.5187C23.775 12.5047 23.8875 12.5 24 12.5C25.6547 12.5 27 13.8453 27 15.5C27 17.1547 25.6547 18.5 24 18.5C22.3453 18.5 21 17.1547 21 15.5C21 14.7734 21.2578 14.1078 21.6891 13.5875ZM8.77969 16.625C8.33438 17.7266 7.25625 18.5 6 18.5C4.34531 18.5 3 17.1547 3 15.5C3 13.8453 4.34531 12.5 6 12.5C7.26094 12.5 8.33906 13.2734 8.77969 14.375H11.8922C11.3672 11.6 8.92969 9.49999 6 9.49999C2.68594 9.49999 0 12.1859 0 15.5C0 18.8141 2.68594 21.5 6 21.5C8.92969 21.5 11.3672 19.4 11.8969 16.625H8.77969ZM6 17C6.39782 17 6.77936 16.842 7.06066 16.5606C7.34196 16.2793 7.5 15.8978 7.5 15.5C7.5 15.1022 7.34196 14.7206 7.06066 14.4393C6.77936 14.158 6.39782 14 6 14C5.60218 14 5.22064 14.158 4.93934 14.4393C4.65804 14.7206 4.5 15.1022 4.5 15.5C4.5 15.8978 4.65804 16.2793 4.93934 16.5606C5.22064 16.842 5.60218 17 6 17Z" fill="#3B82F6"/>
</svg>
