<svg width="28" height="24" viewBox="0 0 28 24" fill="none" xmlns="http://www.w3.org/2000/svg">
<path d="M15.125 1.125V1.61719C15.425 1.67344 15.7156 1.74375 15.9781 1.81406C16.5781 1.97344 16.9344 2.59219 16.775 3.19219C16.6156 3.79219 15.9969 4.14844 15.3969 3.98906C14.8859 3.85312 14.4078 3.75937 13.9813 3.75469C13.6391 3.75 13.2922 3.83437 13.0719 3.96094C12.9734 4.02187 12.9266 4.07344 12.9078 4.10156C12.8938 4.125 12.875 4.15781 12.875 4.23281C12.875 4.24688 12.875 4.25625 12.875 4.26094C12.8844 4.27031 12.9172 4.31719 13.0297 4.38281C13.3016 4.54688 13.7047 4.67344 14.3141 4.85625L14.3563 4.87031C14.8766 5.025 15.5703 5.23594 16.1328 5.5875C16.775 5.99062 17.3562 6.66094 17.3703 7.69219C17.3844 8.74688 16.8359 9.51562 16.1188 9.96563C15.8047 10.1578 15.4672 10.2937 15.1203 10.3781V10.875C15.1203 11.4984 14.6187 12 13.9953 12C13.3719 12 12.8703 11.4984 12.8703 10.875V10.3406C12.425 10.2328 12.0172 10.0922 11.6703 9.975C11.5719 9.94219 11.4781 9.90938 11.3891 9.88125C10.7984 9.68437 10.4797 9.04688 10.6766 8.45625C10.8734 7.86562 11.5109 7.54688 12.1016 7.74375C12.2234 7.78594 12.3359 7.82344 12.4438 7.86094C13.0813 8.07656 13.5406 8.23125 14.0328 8.25C14.4078 8.26406 14.7406 8.175 14.9328 8.05781C15.0219 8.00156 15.0641 7.95469 15.0828 7.92188C15.1016 7.89375 15.125 7.8375 15.1203 7.72969V7.72031C15.1203 7.67344 15.1203 7.62188 14.9328 7.50469C14.6656 7.33594 14.2625 7.20469 13.6625 7.02188L13.5734 6.99375C13.0672 6.84375 12.4016 6.64219 11.8672 6.31875C11.2344 5.93906 10.625 5.2875 10.6203 4.25156C10.6156 3.17812 11.225 2.44219 11.9188 2.02969C12.2188 1.85156 12.5422 1.72969 12.8656 1.64531V1.125C12.8656 0.501562 13.3672 0 13.9906 0C14.6141 0 15.1156 0.501562 15.1156 1.125H15.125ZM27.1344 15.7641C27.7484 16.5984 27.5703 17.7703 26.7359 18.3844L20.8016 22.7578C19.7047 23.5641 18.3828 24 17.0187 24H9.5H2C1.17031 24 0.5 23.3297 0.5 22.5V19.5C0.5 18.6703 1.17031 18 2 18H3.725L5.82969 16.3125C6.89375 15.4594 8.21562 15 9.57969 15H13.25H14H17C17.8297 15 18.5 15.6703 18.5 16.5C18.5 17.3297 17.8297 18 17 18H14H13.25C12.8375 18 12.5 18.3375 12.5 18.75C12.5 19.1625 12.8375 19.5 13.25 19.5H18.9031L24.5141 15.3656C25.3484 14.7516 26.5203 14.9297 27.1344 15.7641ZM9.575 18H9.53281C9.54688 18 9.56094 18 9.575 18Z" fill="#3B82F6"/>
</svg>
