<svg width="132" height="16" viewBox="0 0 132 16" fill="none" xmlns="http://www.w3.org/2000/svg">
<path d="M12.6879 0.96V15H9.26789V9.22H3.94789V15H0.527888V0.96H3.94789V6.46H9.26789V0.96H12.6879ZM26.5768 3.84V15H23.1568V13.48C22.8101 13.9733 22.3368 14.3733 21.7368 14.68C21.1501 14.9733 20.4968 15.12 19.7768 15.12C18.9235 15.12 18.1701 14.9333 17.5168 14.56C16.8635 14.1733 16.3568 13.62 15.9968 12.9C15.6368 12.18 15.4568 11.3333 15.4568 10.36V3.84H18.8568V9.9C18.8568 10.6467 19.0501 11.2267 19.4368 11.64C19.8235 12.0533 20.3435 12.26 20.9968 12.26C21.6635 12.26 22.1901 12.0533 22.5768 11.64C22.9635 11.2267 23.1568 10.6467 23.1568 9.9V3.84H26.5768ZM36.2334 3.72C37.54 3.72 38.58 4.14667 39.3534 5C40.14 5.84 40.5334 7 40.5334 8.48V15H37.1334V8.94C37.1334 8.19333 36.94 7.61333 36.5534 7.2C36.1667 6.78667 35.6467 6.58 34.9934 6.58C34.34 6.58 33.82 6.78667 33.4334 7.2C33.0467 7.61333 32.8534 8.19333 32.8534 8.94V15H29.4334V3.84H32.8534V5.32C33.2 4.82667 33.6667 4.44 34.2534 4.16C34.84 3.86667 35.5 3.72 36.2334 3.72ZM49.5299 12.1V15H47.7899C46.5499 15 45.5833 14.7 44.8899 14.1C44.1966 13.4867 43.8499 12.4933 43.8499 11.12V6.68H42.4899V3.84H43.8499V1.12H47.2699V3.84H49.5099V6.68H47.2699V11.16C47.2699 11.4933 47.3499 11.7333 47.5099 11.88C47.6699 12.0267 47.9366 12.1 48.3099 12.1H49.5299ZM62.3549 9.24C62.3549 9.56 62.3349 9.89333 62.2949 10.24H54.5549C54.6083 10.9333 54.8283 11.4667 55.2149 11.84C55.6149 12.2 56.1016 12.38 56.6749 12.38C57.5283 12.38 58.1216 12.02 58.4549 11.3H62.0949C61.9083 12.0333 61.5683 12.6933 61.0749 13.28C60.5949 13.8667 59.9883 14.3267 59.2549 14.66C58.5216 14.9933 57.7016 15.16 56.7949 15.16C55.7016 15.16 54.7283 14.9267 53.8749 14.46C53.0216 13.9933 52.3549 13.3267 51.8749 12.46C51.3949 11.5933 51.1549 10.58 51.1549 9.42C51.1549 8.26 51.3883 7.24667 51.8549 6.38C52.3349 5.51333 53.0016 4.84667 53.8549 4.38C54.7083 3.91333 55.6883 3.68 56.7949 3.68C57.8749 3.68 58.8349 3.90667 59.6749 4.36C60.5149 4.81333 61.1683 5.46 61.6349 6.3C62.1149 7.14 62.3549 8.12 62.3549 9.24ZM58.8549 8.34C58.8549 7.75333 58.6549 7.28667 58.2549 6.94C57.8549 6.59333 57.3549 6.42 56.7549 6.42C56.1816 6.42 55.6949 6.58667 55.2949 6.92C54.9083 7.25333 54.6683 7.72667 54.5749 8.34H58.8549ZM67.9791 5.7C68.3791 5.08667 68.8791 4.60667 69.4791 4.26C70.0791 3.9 70.7458 3.72 71.4791 3.72V7.34H70.5391C69.6858 7.34 69.0458 7.52667 68.6191 7.9C68.1925 8.26 67.9791 8.9 67.9791 9.82V15H64.5591V3.84H67.9791V5.7Z" fill="#1E293B"/>
<path d="M92.8338 0.96L89.1738 15H85.0338L82.7938 5.76L80.4738 15H76.3338L72.7738 0.96H76.4338L78.4538 11.18L80.9538 0.96H84.7138L87.1138 11.18L89.1538 0.96H92.8338ZM94.269 9.4C94.269 8.25333 94.4823 7.24667 94.909 6.38C95.349 5.51333 95.9423 4.84667 96.689 4.38C97.4357 3.91333 98.269 3.68 99.189 3.68C99.9757 3.68 100.662 3.84 101.249 4.16C101.849 4.48 102.309 4.9 102.629 5.42V3.84H106.049V15H102.629V13.42C102.296 13.94 101.829 14.36 101.229 14.68C100.642 15 99.9557 15.16 99.169 15.16C98.2623 15.16 97.4357 14.9267 96.689 14.46C95.9423 13.98 95.349 13.3067 94.909 12.44C94.4823 11.56 94.269 10.5467 94.269 9.4ZM102.629 9.42C102.629 8.56667 102.389 7.89333 101.909 7.4C101.442 6.90667 100.869 6.66 100.189 6.66C99.509 6.66 98.929 6.90667 98.449 7.4C97.9823 7.88 97.749 8.54667 97.749 9.4C97.749 10.2533 97.9823 10.9333 98.449 11.44C98.929 11.9333 99.509 12.18 100.189 12.18C100.869 12.18 101.442 11.9333 101.909 11.44C102.389 10.9467 102.629 10.2733 102.629 9.42ZM113.463 15.16C112.49 15.16 111.623 14.9933 110.863 14.66C110.103 14.3267 109.503 13.8733 109.063 13.3C108.623 12.7133 108.377 12.06 108.323 11.34H111.703C111.743 11.7267 111.923 12.04 112.243 12.28C112.563 12.52 112.957 12.64 113.423 12.64C113.85 12.64 114.177 12.56 114.403 12.4C114.643 12.2267 114.763 12.0067 114.763 11.74C114.763 11.42 114.597 11.1867 114.263 11.04C113.93 10.88 113.39 10.7067 112.643 10.52C111.843 10.3333 111.177 10.14 110.643 9.94C110.11 9.72667 109.65 9.4 109.263 8.96C108.877 8.50667 108.683 7.9 108.683 7.14C108.683 6.5 108.857 5.92 109.203 5.4C109.563 4.86667 110.083 4.44667 110.763 4.14C111.457 3.83333 112.277 3.68 113.223 3.68C114.623 3.68 115.723 4.02667 116.523 4.72C117.337 5.41333 117.803 6.33333 117.923 7.48H114.763C114.71 7.09333 114.537 6.78667 114.243 6.56C113.963 6.33333 113.59 6.22 113.123 6.22C112.723 6.22 112.417 6.3 112.203 6.46C111.99 6.60667 111.883 6.81333 111.883 7.08C111.883 7.4 112.05 7.64 112.383 7.8C112.73 7.96 113.263 8.12 113.983 8.28C114.81 8.49333 115.483 8.70667 116.003 8.92C116.523 9.12 116.977 9.45333 117.363 9.92C117.763 10.3733 117.97 10.9867 117.983 11.76C117.983 12.4133 117.797 13 117.423 13.52C117.063 14.0267 116.537 14.4267 115.843 14.72C115.163 15.0133 114.37 15.16 113.463 15.16ZM127.336 3.72C128.616 3.72 129.642 4.14667 130.416 5C131.189 5.84 131.576 7 131.576 8.48V15H128.176V8.94C128.176 8.19333 127.982 7.61333 127.596 7.2C127.209 6.78667 126.689 6.58 126.036 6.58C125.382 6.58 124.862 6.78667 124.476 7.2C124.089 7.61333 123.896 8.19333 123.896 8.94V15H120.476V0.2H123.896V5.34C124.242 4.84667 124.716 4.45333 125.316 4.16C125.916 3.86667 126.589 3.72 127.336 3.72Z" fill="#3B82F6"/>
</svg>
